<svg xmlns="http://www.w3.org/2000/svg" width="62.833" height="62.833" viewBox="0 0 62.833 62.833"><defs><style>.a{fill:#f6b739;}</style></defs><g transform="translate(0 0)"><path class="a" d="M66.179,5H6.653A1.653,1.653,0,0,0,5,6.654v46.3a1.654,1.654,0,0,0,1.653,1.654h21.5V51.3H8.307V18.228H64.526V51.3H44.684v3.307h21.5a1.654,1.654,0,0,0,1.653-1.654V6.654A1.653,1.653,0,0,0,66.179,5ZM11.614,13.267a1.653,1.653,0,0,1,0-3.307h0a1.653,1.653,0,0,1,0,3.307Zm4.96,0a1.653,1.653,0,0,1,0-3.307h0a1.653,1.653,0,0,1,0,3.307Zm4.96,0a1.653,1.653,0,0,1,0-3.307h0a1.653,1.653,0,0,1,0,3.307Z" transform="translate(-5 -5)"/><path class="a" d="M35.149,39.8H33.5V33.189H50.03a1.653,1.653,0,0,0,1.653-1.654V21.614a1.653,1.653,0,0,0-1.653-1.653H46.723V16.653A1.653,1.653,0,0,0,45.07,15H13.653A1.653,1.653,0,0,0,12,16.653v9.921a1.653,1.653,0,0,0,1.653,1.653H45.07a1.654,1.654,0,0,0,1.653-1.653V23.267h1.653v6.614H31.842a1.653,1.653,0,0,0-1.653,1.653V39.8H28.535a1.653,1.653,0,0,0-1.653,1.653V59.645A1.653,1.653,0,0,0,28.535,61.3h6.614A1.654,1.654,0,0,0,36.8,59.645V41.456A1.653,1.653,0,0,0,35.149,39.8ZM33.5,57.991H30.188V43.11H31.3a1.339,1.339,0,0,0,1.091,0H33.5Z" transform="translate(-0.426 1.535)"/></g></svg>