<svg xmlns="http://www.w3.org/2000/svg" width="58.691" height="58.691" viewBox="0 0 58.691 58.691"><defs><style>.a,.b{fill:#f6b739;}.b{fill-rule:evenodd;}</style></defs><g transform="translate(0 0)"><g transform="translate(0 0)"><path class="a" d="M12.847,32H10.891A4.9,4.9,0,0,0,6,36.891v1.956a4.9,4.9,0,0,0,4.891,4.891h1.956a4.9,4.9,0,0,0,4.891-4.891V36.891A4.9,4.9,0,0,0,12.847,32Zm2.935,6.847a2.935,2.935,0,0,1-2.935,2.935H10.891a2.935,2.935,0,0,1-2.935-2.935V36.891a2.935,2.935,0,0,1,2.935-2.935h1.956a2.935,2.935,0,0,1,2.935,2.935Z" transform="translate(-2.087 -2.655)"/><path class="a" d="M12.847,46H10.891A4.9,4.9,0,0,0,6,50.891v1.956a4.9,4.9,0,0,0,4.891,4.891h1.956a4.9,4.9,0,0,0,4.891-4.891V50.891A4.9,4.9,0,0,0,12.847,46Zm2.935,6.847a2.935,2.935,0,0,1-2.935,2.935H10.891a2.935,2.935,0,0,1-2.935-2.935V50.891a2.935,2.935,0,0,1,2.935-2.935h1.956a2.935,2.935,0,0,1,2.935,2.935Z" transform="translate(-2.087 -2.96)"/><path class="a" d="M26.847,32H24.891A4.9,4.9,0,0,0,20,36.891v1.956a4.9,4.9,0,0,0,4.891,4.891h1.956a4.9,4.9,0,0,0,4.891-4.891V36.891A4.9,4.9,0,0,0,26.847,32Zm2.935,6.847a2.935,2.935,0,0,1-2.935,2.935H24.891a2.935,2.935,0,0,1-2.935-2.935V36.891a2.935,2.935,0,0,1,2.935-2.935h1.956a2.935,2.935,0,0,1,2.935,2.935Z" transform="translate(-2.393 -2.655)"/><path class="a" d="M26.847,46H24.891A4.9,4.9,0,0,0,20,50.891v1.956a4.9,4.9,0,0,0,4.891,4.891h1.956a4.9,4.9,0,0,0,4.891-4.891V50.891A4.9,4.9,0,0,0,26.847,46Zm2.935,6.847a2.935,2.935,0,0,1-2.935,2.935H24.891a2.935,2.935,0,0,1-2.935-2.935V50.891a2.935,2.935,0,0,1,2.935-2.935h1.956a2.935,2.935,0,0,1,2.935,2.935Z" transform="translate(-2.393 -2.96)"/><path class="a" d="M37.913,42A3.913,3.913,0,0,0,34,45.913v7.825a3.913,3.913,0,1,0,7.825,0V45.913A3.913,3.913,0,0,0,37.913,42Z" transform="translate(-2.698 -2.873)"/><path class="a" d="M34,35.913A3.913,3.913,0,1,0,37.913,32,3.913,3.913,0,0,0,34,35.913Zm5.869,0a1.956,1.956,0,1,1-1.956-1.956A1.956,1.956,0,0,1,39.869,35.913Z" transform="translate(-2.698 -2.655)"/><path class="a" d="M46.018,3.956c-.381,0-.763.029-1.144.059A2.924,2.924,0,0,0,42.105,2H4.935A2.943,2.943,0,0,0,2,4.935V57.756a2.943,2.943,0,0,0,2.935,2.935H42.105a2.943,2.943,0,0,0,2.935-2.935v-24.5c.323.02.646.049.978.049a14.673,14.673,0,1,0,0-29.345ZM58.686,17.651H56.729a10.847,10.847,0,0,0-.949-3.521l1.692-.988A12.738,12.738,0,0,1,58.686,17.651ZM53.2,8.143A12.955,12.955,0,0,1,56.5,11.449l-1.7.978A11.157,11.157,0,0,0,52.22,9.845ZM47,5.962a12.738,12.738,0,0,1,4.509,1.213l-.988,1.692A10.847,10.847,0,0,0,47,7.918Zm-1.956,0V7.918a10.847,10.847,0,0,0-3.521.949l-.988-1.692A12.738,12.738,0,0,1,45.04,5.962ZM43.084,57.756a.978.978,0,0,1-.978.978H4.935a.978.978,0,0,1-.978-.978V4.935a.978.978,0,0,1,.978-.978H42.105a.964.964,0,0,1,.734.352,14.853,14.853,0,0,0-4.725,1.976,4.91,4.91,0,0,0-1.878-.372H10.8A4.891,4.891,0,0,0,5.913,10.8V24.5A4.891,4.891,0,0,0,10.8,29.389H36.08a14.608,14.608,0,0,0,7,3.619ZM33.351,19.607h1.956a10.847,10.847,0,0,0,.949,3.521l-1.692.988a12.738,12.738,0,0,1-1.213-4.509Zm.959,7.825c.85.832-2.531-3.716-2.457-8.8.057-4.69,3.907-10.905,4.227-10.76a14.575,14.575,0,0,0-1.771,19.564Zm2.925-2.6a11.157,11.157,0,0,0,2.582,2.582l-.978,1.7a12.955,12.955,0,0,1-3.306-3.306Zm-1.927-7.18H33.351a12.738,12.738,0,0,1,1.213-4.509l1.692.988a10.847,10.847,0,0,0-.949,3.521Zm.225-6.2a12.955,12.955,0,0,1,3.306-3.306l.978,1.7a11.157,11.157,0,0,0-2.582,2.582ZM45.04,31.3a12.738,12.738,0,0,1-4.509-1.213l.988-1.692a10.847,10.847,0,0,0,3.521.949ZM37.215,18.629a8.8,8.8,0,0,1,16.358-4.523,8.647,8.647,0,0,1,1.249,4.523,8.8,8.8,0,0,1-17.607,0ZM47,31.3V29.34a10.847,10.847,0,0,0,3.521-.949l.988,1.692A12.738,12.738,0,0,1,47,31.3Zm6.2-2.181-.978-1.7A11.157,11.157,0,0,0,54.8,24.831l1.7.978A12.955,12.955,0,0,1,53.2,29.115Zm4.275-5-1.692-.988a10.847,10.847,0,0,0,.949-3.521h1.956A12.738,12.738,0,0,1,57.473,24.117Z" transform="translate(-2 -2)"/></g></g><g transform="translate(39.838 10.703)"><g transform="translate(0)"><path class="b" d="M167.964,1084.36v1.6l1.645.016a2.377,2.377,0,0,1,2.532,1.592h-4.178v1.6h4.178a2.365,2.365,0,0,1-2.532,1.589h-1.646v1.617h.426l4.942,4.817,1.122-1.147-3.868-3.78a4.032,4.032,0,0,0,3.2-3.1h2.2v-1.6h-2.2a3.976,3.976,0,0,0-.768-1.6h2.972v-1.6h-8.024Z" transform="translate(-167.964 -1084.36)"/></g></g></svg>