<svg xmlns="http://www.w3.org/2000/svg" width="69.987" height="60.118" viewBox="0 0 69.987 60.118"><defs><style>.a,.b,.e{fill:#f6b739;}.c,.f{fill:none;}.c{stroke:#f6b739;stroke-width:3px;}.d,.e{stroke:none;}</style></defs><g transform="translate(0 1.428)"><g transform="translate(0 0)"><g transform="translate(23.544)"><rect class="a" width="10.607" height="1.655" transform="translate(0 50.086)"/><rect class="a" width="19.287" height="1.655" transform="translate(25.728 50.086)"/><path class="a" d="M160,54.478l.128,4.98h-7.69l.128-4.98-1.164-.03-1.15,44.808,1.164.03.141-5.495h9.453l.141,5.495,1.164-.03-1.15-44.808Zm.553,21.564h-8.541l.183-7.128h8.175Zm.03,1.164.183,7.128H151.8l.183-7.128Zm-.426-16.585.183,7.129h-8.115l.183-7.129Zm-8.571,32.005.183-7.128H160.8l.183,7.128Z" transform="translate(-137.964 -44.183)"/><g class="b" transform="translate(-143.32 -19.167)"><path class="d" d="M 186.6626892089844 55.49157333374023 L 184.2310943603516 55.49157333374023 L 184.2310943603516 44.18940353393555 L 184.2310943603516 42.68940353393555 L 182.7310943603516 42.68940353393555 L 179.2850952148438 42.68940353393555 L 179.2850952148438 35.75161361694336 L 179.2850952148438 34.25161361694336 L 177.7850952148438 34.25161361694336 L 175.4057769775391 34.25161361694336 L 175.4057769775391 23.33730506896973 L 175.4057769775391 21.83730506896973 L 173.9057769775391 21.83730506896973 L 159.3059692382813 21.83730506896973 L 159.3059692382813 20.66700553894043 L 173.9057769775391 20.66700553894043 L 180.0158843994141 20.66700553894043 L 186.6626892089844 20.66700553894043 L 186.6626892089844 32.16322326660156 L 186.6626892089844 35.75161361694336 L 186.6626892089844 55.49157333374023 Z"/><path class="e" d="M 185.1626892089844 41.18940353393555 L 185.1626892089844 35.75161361694336 L 185.1626892089844 32.16322326660156 L 185.1626892089844 22.16700553894043 L 180.0158843994141 22.16700553894043 L 176.9057769775391 22.16700553894043 L 176.9057769775391 23.33730506896973 L 176.9057769775391 32.75161361694336 L 177.7850952148438 32.75161361694336 L 180.7850952148438 32.75161361694336 L 180.7850952148438 35.75161361694336 L 180.7850952148438 41.18940353393555 L 182.7310943603516 41.18940353393555 L 185.1626892089844 41.18940353393555 M 188.1626892089844 56.99157333374023 L 182.7310943603516 56.99157333374023 L 182.7310943603516 44.18940353393555 L 177.7850952148438 44.18940353393555 L 177.7850952148438 35.75161361694336 L 173.9057769775391 35.75161361694336 L 173.9057769775391 23.33730506896973 L 157.8059692382813 23.33730506896973 L 157.8059692382813 19.16700553894043 L 173.9057769775391 19.16700553894043 L 180.0158843994141 19.16700553894043 L 188.1626892089844 19.16700553894043 L 188.1626892089844 32.16322326660156 L 188.1626892089844 35.75161361694336 L 188.1626892089844 56.99157333374023 Z"/></g></g><g transform="translate(0 1.572)"><g class="c" transform="translate(7.773)"><rect class="d" width="59.214" height="48.734"/><rect class="f" x="-1.5" y="-1.5" width="62.214" height="51.734"/></g><g transform="translate(0 6.24)"><path class="a" d="M174.982,97.522c5.629,0,10.186-5.683,10.186-12.682,0-.19-.041-.366-.041-.556A7.6,7.6,0,0,0,180.1,70.95c-.3,0-.57.054-.855.081a10.13,10.13,0,0,0-14.418,14.188C165,92.056,169.462,97.522,174.982,97.522ZM167.373,81.2l10.2-2.55,5.073,2.55.014,3.649c0,5.6-3.418,10.146-7.65,10.146s-7.65-4.544-7.65-10.146V81.2Z" transform="translate(-149.577 -68.4)"/><path class="a" d="M115.675,293.54a10.016,10.016,0,0,0-6.212-6.714l-5.1-1.926a13.739,13.739,0,0,1-20.916.027l-5.046,1.9a10.108,10.108,0,0,0-6.212,6.714L68.5,306.412h50.865Zm-6.484,7.8h-7.636v-2.55h7.636Z" transform="translate(-68.5 -255.534)"/></g></g></g><rect class="a" width="8.303" height="3.321" transform="translate(39.649 50.647)"/></g></svg>