<svg xmlns="http://www.w3.org/2000/svg" width="66.698" height="68.449" viewBox="0 0 66.698 68.449"><defs><style>.a{fill:#f6b739;}</style></defs><path class="a" d="M55.476,31.311a.875.875,0,0,0-.592-.24.835.835,0,0,0-.589.249L44.339,41.426l-3.1-3.95a.832.832,0,0,0-1.171-.14l-4.834,3.8A.834.834,0,0,0,35.09,42.3l8,10.182a.834.834,0,0,0,.61.317l.046,0a.834.834,0,0,0,.594-.249L59.861,36.806a.834.834,0,0,0-.008-1.18Z" transform="translate(-14.157 -12.648)"/><path class="a" d="M76.018,63.515,64.466,51.963c2.054-2.46,3.108-4.69,3.108-6.63V23.306a.835.835,0,0,0-.417-.723L43.815,9.112a.838.838,0,0,0-.835,0L19.638,22.583a.835.835,0,0,0-.417.723V45.333c0,1.941,1.054,4.171,3.108,6.63L10.777,63.515A2.459,2.459,0,0,0,12.8,67.7l7.932-.927L19.8,74.7a2.433,2.433,0,0,0,1.369,2.5,2.47,2.47,0,0,0,1.087.254,2.446,2.446,0,0,0,1.729-.723L36.9,63.811c3.441,2.2,6.062,3.651,6.09,3.667a.835.835,0,0,0,.805,0c.028-.015,2.649-1.464,6.09-3.667L62.808,76.729a2.441,2.441,0,0,0,1.726.721,2.474,2.474,0,0,0,1.087-.254,2.434,2.434,0,0,0,1.369-2.5l-.927-7.924L74,67.7a2.459,2.459,0,0,0,2.022-4.184ZM49.55,62.043c-2.864,1.855-5.239,3.227-6.153,3.746-.915-.518-3.289-1.89-6.152-3.744-.766-.5-1.586-1.044-2.434-1.627-1.11-.763-2.27-1.591-3.426-2.462l-.067-.05a50.333,50.333,0,0,1-7.23-6.447l0,0c-2.119-2.386-3.194-4.446-3.194-6.123V23.788L43.4,10.8l22.508,12.99V45.333c0,1.678-1.075,3.738-3.2,6.125-.651.738-1.377,1.477-2.153,2.21A81.645,81.645,0,0,1,49.55,62.043Z" transform="translate(-10.048 -9)"/><path class="a" d="M66.043,46.287V26.671a.835.835,0,0,0-.417-.723L46.457,14.884a.838.838,0,0,0-.835,0L26.453,25.948a.835.835,0,0,0-.417.723V46.287c0,.474.25,1.858,2.57,4.469,2.6,2.946,6.971,6.452,12.641,10.139,1.414.916,2.882,1.826,4.367,2.706a.835.835,0,0,0,.851,0c1.466-.869,2.934-1.777,4.361-2.7,5.674-3.69,10.05-7.2,12.655-10.152C65.794,48.144,66.043,46.761,66.043,46.287ZM62.231,49.64c-2.507,2.842-6.765,6.251-12.312,9.859-1.27.822-2.573,1.632-3.879,2.412-1.32-.789-2.625-1.6-3.883-2.415-5.544-3.606-9.8-7.01-12.3-9.846-2.051-2.309-2.15-3.362-2.15-3.362V27.153C46.2,16.443,46.056,16.443,46.04,16.571L64.374,27.153V46.272C64.374,46.281,64.28,47.334,62.231,49.64Z" transform="translate(-12.691 -9.954)"/></svg>