<svg width="197" height="54" viewBox="0 0 197 54" fill="none" xmlns="http://www.w3.org/2000/svg">
<rect width="54" height="54" rx="14.5946" fill="#38B2FD"/>
<path d="M18.4364 25.752H11.2588L17.3256 45.4518H23.6488L26.9813 35.8544L30.0574 45.4518H36.0388L42.5329 25.752H35.3552L32.7063 34.9284L30.0574 25.752H23.8197L21.0853 34.9284L18.4364 25.752Z" fill="white"/>
<path d="M33.3451 23.9546C33.3451 23.1202 33.1783 22.2939 32.8542 21.523C32.5301 20.7521 32.0551 20.0517 31.4562 19.4616C30.8573 18.8716 30.1464 18.4036 29.3639 18.0843C28.5815 17.7649 27.7429 17.6006 26.896 17.6006C26.049 17.6006 25.2104 17.7649 24.428 18.0843C23.6455 18.4036 22.9346 18.8716 22.3357 19.4616C21.7368 20.0517 21.2618 20.7521 20.9377 21.523C20.6136 22.2939 20.4468 23.1202 20.4468 23.9546H23.1766C23.1766 23.4734 23.2728 22.9968 23.4597 22.5522C23.6466 22.1076 23.9206 21.7037 24.266 21.3634C24.6113 21.0231 25.0214 20.7532 25.4726 20.569C25.9239 20.3849 26.4075 20.2901 26.896 20.2901C27.3844 20.2901 27.868 20.3849 28.3193 20.569C28.7706 20.7532 29.1806 21.0231 29.526 21.3634C29.8713 21.7037 30.1453 22.1076 30.3322 22.5522C30.5191 22.9968 30.6153 23.4734 30.6153 23.9546H33.3451Z" fill="#F00A2F"/>
<path d="M37.7621 23.8678C37.7621 22.4504 37.4787 21.0469 36.9282 19.7375C36.3777 18.428 35.5707 17.2382 34.5535 16.2359C33.5362 15.2337 32.3286 14.4387 30.9995 13.8963C29.6704 13.3539 28.2459 13.0747 26.8073 13.0747C25.3687 13.0747 23.9442 13.3539 22.6151 13.8963C21.286 14.4387 20.0784 15.2337 19.0611 16.2359C18.0439 17.2382 17.2369 18.428 16.6864 19.7375C16.1359 21.0469 15.8525 22.4504 15.8525 23.8678H18.7085C18.7085 22.8199 18.9179 21.7823 19.325 20.8142C19.732 19.8462 20.3285 18.9665 21.0806 18.2256C21.8326 17.4846 22.7254 16.8969 23.708 16.4959C24.6906 16.0949 25.7437 15.8885 26.8073 15.8885C27.8709 15.8885 28.924 16.0949 29.9066 16.4959C30.8892 16.8969 31.782 17.4846 32.534 18.2256C33.2861 18.9665 33.8826 19.8462 34.2897 20.8142C34.6967 21.7823 34.9061 22.8199 34.9061 23.8678H37.7621Z" fill="#F00A2F"/>
<path d="M42.5329 23.9546C42.5329 21.9314 42.1284 19.9281 41.3426 18.0589C40.5567 16.1897 39.4049 14.4913 37.9529 13.0607C36.5009 11.6301 34.777 10.4953 32.8799 9.72107C30.9827 8.94683 28.9493 8.54834 26.8958 8.54834C24.8423 8.54834 22.809 8.94683 20.9118 9.72107C19.0146 10.4953 17.2908 11.6301 15.8388 13.0607C14.3867 14.4913 13.2349 16.1897 12.4491 18.0589C11.6633 19.9281 11.2588 21.9314 11.2588 23.9546H14.0452C14.0452 22.2919 14.3776 20.6456 15.0234 19.1094C15.6692 17.5733 16.6157 16.1776 17.809 15.0019C19.0023 13.8262 20.419 12.8936 21.9781 12.2574C23.5372 11.6211 25.2083 11.2936 26.8958 11.2936C28.5834 11.2936 30.2545 11.6211 31.8136 12.2574C33.3727 12.8936 34.7893 13.8262 35.9826 15.0019C37.1759 16.1776 38.1225 17.5733 38.7683 19.1094C39.4141 20.6456 39.7465 22.2919 39.7465 23.9546H42.5329Z" fill="#F00A2F"/>
<path d="M76.7576 31.2851C82.4803 31.2851 86.2432 27.4046 86.2432 21.8778C86.2432 16.2727 82.5195 12.5098 76.7576 12.5098H65.4297V41.1627H70.4469V31.2851H76.7576ZM75.7777 16.9782C79.1094 16.9782 80.9909 18.7029 80.9909 21.8386C80.9909 24.9744 79.1486 26.8166 75.6993 26.8166H70.4469V16.9782H75.7777Z" fill="white"/>
<path d="M94.7545 41.6723C97.7726 41.6723 100.399 40.3004 101.222 38.3013L101.575 41.1627H105.769V29.4036C105.769 24.0337 102.555 21.2115 97.3415 21.2115C92.0891 21.2115 88.6398 23.9553 88.6398 28.1493H92.7162C92.7162 26.1111 94.2841 24.9352 97.1063 24.9352C99.5365 24.9352 101.104 25.9935 101.104 28.6197V29.0509L95.3032 29.482C90.7172 29.8348 88.1302 32.069 88.1302 35.6359C88.1302 39.2813 90.6388 41.6723 94.7545 41.6723ZM96.3224 38.0662C94.1665 38.0662 92.9906 37.2038 92.9906 35.44C92.9906 33.8721 94.1273 32.8922 97.1063 32.6178L101.144 32.3042V33.3233C101.144 36.3023 99.2621 38.0662 96.3224 38.0662Z" fill="white"/>
<path d="M122.618 21.721C121.834 21.5251 121.167 21.4467 120.501 21.4467C117.914 21.4467 116.072 22.7402 115.249 24.6608L114.974 21.8386H110.467V41.1627H115.249V31.7554C115.249 27.9925 117.404 26.1503 120.854 26.1503H122.618V21.721Z" fill="white"/>
<path d="M133.205 41.1627V25.7975H136.968V21.7994H133.205V15.7631H128.423V21.7994H124.699V25.7975H128.423V41.1627H133.205Z" fill="white"/>
<path d="M144.723 41.1627V30.7363C144.723 27.6006 146.526 25.5623 149.466 25.5623C151.935 25.5623 153.542 27.1302 153.542 30.3836V41.1627H158.324V29.2468C158.324 24.2296 155.816 21.2115 150.955 21.2115C148.329 21.2115 145.977 22.3482 144.762 24.308L144.37 21.7994H139.941V41.1627H144.723Z" fill="white"/>
<path d="M171.685 41.6723C176.742 41.6723 180.269 39.1245 181.092 34.8912H176.663C176.114 36.7335 174.39 37.7526 171.764 37.7526C168.589 37.7526 166.786 36.0279 166.433 32.6178L181.014 32.5786V31.1283C181.014 25.092 177.33 21.2115 171.528 21.2115C165.845 21.2115 161.886 25.4055 161.886 31.4811C161.886 37.4782 165.923 41.6723 171.685 41.6723ZM171.568 25.1312C174.429 25.1312 176.271 26.895 176.271 29.5604H166.55C167.021 26.6599 168.745 25.1312 171.568 25.1312Z" fill="white"/>
<path d="M196.992 21.721C196.208 21.5251 195.542 21.4467 194.876 21.4467C192.289 21.4467 190.446 22.7402 189.623 24.6608L189.349 21.8386H184.841V41.1627H189.623V31.7554C189.623 27.9925 191.779 26.1503 195.228 26.1503H196.992V21.721Z" fill="white"/>
</svg>
