<svg width="210" height="55" viewBox="0 0 210 55" fill="none" xmlns="http://www.w3.org/2000/svg">
<path d="M64.1083 21.8548C64.1083 26.2828 66.6781 29.0899 71.5806 30.1574L76.1668 31.1853C78.539 31.6993 79.5274 32.8458 79.5274 34.7831C79.5274 37.1948 77.3924 38.6577 74.0319 38.6577C70.7899 38.6577 68.8131 37.1948 68.7735 34.7436H63.7129C63.8315 39.9228 67.8642 43.2043 74.0319 43.2043C80.3972 43.2043 84.588 39.7251 84.588 34.3482C84.588 30.0388 82.1763 27.5084 77.2343 26.441L72.6876 25.4526C70.2759 24.899 69.1689 23.7525 69.1689 21.6966C69.1689 19.2849 71.1852 17.7825 74.3086 17.7825C77.1552 17.7825 78.9344 19.2454 79.053 21.7361H84.1136C83.9555 16.5174 80.239 13.2754 74.3877 13.2754C68.2991 13.2754 64.1083 16.7941 64.1083 21.8548Z" fill="white"/>
<path d="M90.8663 19.2454C92.4477 19.2454 93.7524 17.9407 93.7524 16.3197C93.7524 14.6987 92.4477 13.4335 90.8663 13.4335C89.2057 13.4335 87.901 14.6987 87.901 16.3197C87.901 17.9407 89.2057 19.2454 90.8663 19.2454ZM88.4546 42.6904H93.278V23.1595H88.4546V42.6904Z" fill="white"/>
<path d="M97.1544 32.49C97.1544 38.1437 100.792 42.295 106.327 42.295C109.134 42.295 111.546 41.1485 112.771 39.3298V42.5718C112.771 45.8137 110.636 47.9091 107.315 47.9091C104.35 47.9091 102.413 46.4068 102.096 43.8765H97.273C97.866 49.0952 101.701 52.2977 107.315 52.2977C113.641 52.2977 117.555 48.2254 117.555 41.702V23.1595H113.087L112.811 25.8479C111.664 23.7525 109.371 22.5269 106.445 22.5269C100.871 22.5269 97.1544 26.7968 97.1544 32.49ZM102.017 32.3714C102.017 29.169 104.073 26.7573 107.276 26.7573C110.636 26.7573 112.653 29.0504 112.653 32.3714C112.653 35.7715 110.597 38.1042 107.276 38.1042C104.113 38.1042 102.017 35.6529 102.017 32.3714Z" fill="white"/>
<path d="M127.37 42.6904V32.1737C127.37 29.0108 129.189 26.9549 132.154 26.9549C134.645 26.9549 136.266 28.5364 136.266 31.8179V42.6904H141.089V30.6713C141.089 25.6107 138.559 22.5664 133.657 22.5664C131.008 22.5664 128.635 23.713 127.41 25.6898L127.014 23.1595H122.547V42.6904H127.37Z" fill="white"/>
<path d="M151.64 43.2043C154.685 43.2043 157.334 41.8206 158.164 39.8042L158.52 42.6904H162.75V30.8295C162.75 25.413 159.508 22.5664 154.25 22.5664C148.952 22.5664 145.473 25.3339 145.473 29.5643H149.584C149.584 27.5084 151.166 26.3224 154.012 26.3224C156.464 26.3224 158.045 27.3898 158.045 30.0388V30.4737L152.194 30.9086C147.568 31.2644 144.959 33.518 144.959 37.1158C144.959 40.7926 147.489 43.2043 151.64 43.2043ZM153.222 39.567C151.047 39.567 149.861 38.6972 149.861 36.9181C149.861 35.3366 151.008 34.3482 154.012 34.0715L158.085 33.7552V34.7831C158.085 37.7879 156.187 39.567 153.222 39.567Z" fill="white"/>
<path d="M166.381 32.49C166.381 38.1437 170.019 42.295 175.554 42.295C178.361 42.295 180.773 41.1485 181.998 39.3298V42.5718C181.998 45.8137 179.863 47.9091 176.542 47.9091C173.577 47.9091 171.64 46.4068 171.323 43.8765H166.5C167.093 49.0952 170.928 52.2977 176.542 52.2977C182.868 52.2977 186.782 48.2254 186.782 41.702V23.1595H182.315L182.038 25.8479C180.891 23.7525 178.598 22.5269 175.672 22.5269C170.098 22.5269 166.381 26.7968 166.381 32.49ZM171.244 32.3714C171.244 29.169 173.3 26.7573 176.503 26.7573C179.863 26.7573 181.88 29.0504 181.88 32.3714C181.88 35.7715 179.824 38.1042 176.503 38.1042C173.34 38.1042 171.244 35.6529 171.244 32.3714Z" fill="white"/>
<path d="M200.511 43.2043C205.612 43.2043 209.17 40.6345 210 36.3646H205.533C204.979 38.2228 203.239 39.2507 200.59 39.2507C197.388 39.2507 195.569 37.5111 195.214 34.0715L209.921 34.0319V32.5691C209.921 26.4805 206.205 22.5664 200.353 22.5664C194.621 22.5664 190.627 26.7968 190.627 32.9249C190.627 38.974 194.7 43.2043 200.511 43.2043ZM200.393 26.52C203.279 26.52 205.137 28.2992 205.137 30.9876H195.332C195.807 28.0619 197.546 26.52 200.393 26.52Z" fill="white"/>
<rect width="54.4675" height="54.4675" rx="14.7209" fill="#38B2FD"/>
<path d="M18.596 25.9746H11.3562L17.4756 45.845H23.8535L27.2148 36.1645L30.3176 45.845H36.3507L42.901 25.9746H35.6612L32.9894 35.2305L30.3176 25.9746H24.0258L21.2678 35.2305L18.596 25.9746Z" fill="white"/>
<path d="M33.6338 24.1619C33.6338 23.3203 33.4655 22.4869 33.1386 21.7093C32.8117 20.9317 32.3326 20.2252 31.7285 19.6301C31.1245 19.035 30.4074 18.5629 29.6181 18.2408C28.8289 17.9187 27.983 17.7529 27.1288 17.7529C26.2745 17.7529 25.4287 17.9187 24.6394 18.2408C23.8502 18.5629 23.1331 19.035 22.5291 19.6301C21.925 20.2252 21.4459 20.9317 21.1189 21.7093C20.792 22.4869 20.6238 23.3203 20.6238 24.1619H23.3772C23.3772 23.6765 23.4742 23.1959 23.6628 22.7475C23.8513 22.299 24.1277 21.8915 24.476 21.5483C24.8244 21.2051 25.238 20.9328 25.6931 20.7471C26.1483 20.5613 26.6361 20.4657 27.1288 20.4657C27.6215 20.4657 28.1093 20.5613 28.5645 20.7471C29.0196 20.9328 29.4332 21.2051 29.7816 21.5483C30.1299 21.8915 30.4063 22.299 30.5948 22.7475C30.7833 23.1959 30.8804 23.6765 30.8804 24.1619H33.6338Z" fill="#F00A2F"/>
<path d="M38.0892 24.074C38.0892 22.6444 37.8034 21.2287 37.2481 19.9079C36.6928 18.5871 35.8789 17.387 34.8528 16.3761C33.8268 15.3652 32.6087 14.5633 31.2681 14.0162C29.9275 13.4691 28.4906 13.1875 27.0396 13.1875C25.5885 13.1875 24.1517 13.4691 22.8111 14.0162C21.4705 14.5633 20.2524 15.3652 19.2263 16.3761C18.2003 17.387 17.3864 18.5871 16.8311 19.9079C16.2758 21.2288 15.99 22.6444 15.99 24.074H18.8706C18.8706 23.0171 19.0819 21.9705 19.4925 20.994C19.903 20.0176 20.5047 19.1303 21.2633 18.383C22.0218 17.6356 22.9224 17.0428 23.9135 16.6383C24.9046 16.2338 25.9668 16.0256 27.0396 16.0256C28.1124 16.0256 29.1746 16.2338 30.1657 16.6383C31.1568 17.0428 32.0574 17.6356 32.8159 18.383C33.5745 19.1303 34.1762 20.0176 34.5867 20.994C34.9972 21.9705 35.2085 23.0171 35.2085 24.074H38.0892Z" fill="#F00A2F"/>
<path d="M42.901 24.1617C42.901 22.121 42.4931 20.1003 41.7004 18.2149C40.9078 16.3296 39.746 14.6165 38.2814 13.1735C36.8168 11.7305 35.0781 10.5859 33.1645 9.80496C31.2509 9.02401 29.1999 8.62207 27.1286 8.62207C25.0574 8.62207 23.0064 9.02402 21.0928 9.80496C19.1792 10.5859 17.4404 11.7305 15.9758 13.1735C14.5112 14.6165 13.3494 16.3296 12.5568 18.215C11.7642 20.1003 11.3562 22.121 11.3562 24.1617H14.1667C14.1667 22.4847 14.502 20.824 15.1534 19.2746C15.8048 17.7252 16.7595 16.3174 17.9632 15.1315C19.1668 13.9457 20.5957 13.005 22.1683 12.3632C23.7409 11.7214 25.4264 11.3911 27.1286 11.3911C28.8308 11.3911 30.5163 11.7214 32.0889 12.3632C33.6615 13.005 35.0905 13.9457 36.2941 15.1315C37.4977 16.3174 38.4525 17.7252 39.1039 19.2746C39.7553 20.824 40.0905 22.4847 40.0905 24.1617H42.901Z" fill="#F00A2F"/>
</svg>
