<svg width="209" height="54" viewBox="0 0 209 54" fill="none" xmlns="http://www.w3.org/2000/svg">
<rect width="54" height="54" rx="14.5946" fill="#38B2FD"/>
<path d="M18.4364 25.752H11.2588L17.3256 45.4518H23.6488L26.9813 35.8544L30.0574 45.4518H36.0388L42.5329 25.752H35.3552L32.7063 34.9284L30.0574 25.752H23.8197L21.0853 34.9284L18.4364 25.752Z" fill="white"/>
<path d="M33.3451 23.9546C33.3451 23.1202 33.1783 22.2939 32.8542 21.523C32.5301 20.7521 32.0551 20.0517 31.4562 19.4616C30.8573 18.8716 30.1464 18.4036 29.3639 18.0843C28.5815 17.7649 27.7429 17.6006 26.896 17.6006C26.049 17.6006 25.2104 17.7649 24.428 18.0843C23.6455 18.4036 22.9346 18.8716 22.3357 19.4616C21.7368 20.0517 21.2618 20.7521 20.9377 21.523C20.6136 22.2939 20.4468 23.1202 20.4468 23.9546H23.1766C23.1766 23.4734 23.2728 22.9968 23.4597 22.5522C23.6466 22.1076 23.9206 21.7037 24.266 21.3634C24.6113 21.0231 25.0214 20.7532 25.4726 20.569C25.9239 20.3849 26.4075 20.2901 26.896 20.2901C27.3844 20.2901 27.868 20.3849 28.3193 20.569C28.7706 20.7532 29.1806 21.0231 29.526 21.3634C29.8713 21.7037 30.1453 22.1076 30.3322 22.5522C30.5191 22.9968 30.6153 23.4734 30.6153 23.9546H33.3451Z" fill="#F00A2F"/>
<path d="M37.7621 23.8678C37.7621 22.4504 37.4787 21.0469 36.9282 19.7375C36.3777 18.428 35.5707 17.2382 34.5535 16.2359C33.5362 15.2337 32.3286 14.4387 30.9995 13.8963C29.6704 13.3539 28.2459 13.0747 26.8073 13.0747C25.3687 13.0747 23.9442 13.3539 22.6151 13.8963C21.286 14.4387 20.0784 15.2337 19.0611 16.2359C18.0439 17.2382 17.2369 18.428 16.6864 19.7375C16.1359 21.0469 15.8525 22.4504 15.8525 23.8678H18.7085C18.7085 22.8199 18.9179 21.7823 19.325 20.8142C19.732 19.8462 20.3285 18.9665 21.0806 18.2256C21.8326 17.4846 22.7254 16.8969 23.708 16.4959C24.6906 16.0949 25.7437 15.8885 26.8073 15.8885C27.8709 15.8885 28.924 16.0949 29.9066 16.4959C30.8892 16.8969 31.782 17.4846 32.534 18.2256C33.2861 18.9665 33.8826 19.8462 34.2897 20.8142C34.6967 21.7823 34.9061 22.8199 34.9061 23.8678H37.7621Z" fill="#F00A2F"/>
<path d="M42.5329 23.9546C42.5329 21.9314 42.1284 19.9281 41.3426 18.0589C40.5567 16.1897 39.4049 14.4913 37.9529 13.0607C36.5009 11.6301 34.777 10.4953 32.8799 9.72107C30.9827 8.94683 28.9493 8.54834 26.8958 8.54834C24.8423 8.54834 22.809 8.94683 20.9118 9.72107C19.0146 10.4953 17.2908 11.6301 15.8388 13.0607C14.3867 14.4913 13.2349 16.1897 12.4491 18.0589C11.6633 19.9281 11.2588 21.9314 11.2588 23.9546H14.0452C14.0452 22.2919 14.3776 20.6456 15.0234 19.1094C15.6692 17.5733 16.6157 16.1776 17.809 15.0019C19.0023 13.8262 20.419 12.8936 21.9781 12.2574C23.5372 11.6211 25.2083 11.2936 26.8958 11.2936C28.5834 11.2936 30.2545 11.6211 31.8136 12.2574C33.3727 12.8936 34.7893 13.8262 35.9826 15.0019C37.1759 16.1776 38.1225 17.5733 38.7683 19.1094C39.4141 20.6456 39.7465 22.2919 39.7465 23.9546H42.5329Z" fill="#F00A2F"/>
<path d="M71.3877 42.3246H76.3265L82.5588 21.4719L88.6735 42.3246H93.534L102.236 13.6717H97.1401L92.5148 28.8409C92.0837 30.2912 91.6917 31.8198 91.1429 34.4852C90.6726 32.055 90.2414 30.4088 89.7711 28.8017L85.3418 13.6717H79.815L75.3074 28.8017C74.7978 30.4479 74.3667 31.9374 73.8963 34.4852C73.4651 31.9766 73.034 30.3696 72.6028 28.8017L68.056 13.6717H62.8428L71.3877 42.3246Z" fill="white"/>
<path d="M107.69 19.0808C109.258 19.0808 110.552 17.7873 110.552 16.1803C110.552 14.5732 109.258 13.3189 107.69 13.3189C106.044 13.3189 104.75 14.5732 104.75 16.1803C104.75 17.7873 106.044 19.0808 107.69 19.0808ZM105.299 42.3246H110.081V22.9613H105.299V42.3246Z" fill="white"/>
<path d="M119.843 42.3246V13.1621H115.1V42.3246H119.843Z" fill="white"/>
<path d="M129.681 42.3246V13.1621H124.938V42.3246H129.681Z" fill="white"/>
<path d="M146.73 32.447C152.453 32.447 156.216 28.5665 156.216 23.0397C156.216 17.4346 152.492 13.6717 146.73 13.6717H135.402V42.3246H140.42V32.447H146.73ZM145.75 18.1401C149.082 18.1401 150.964 19.8648 150.964 23.0005C150.964 26.1363 149.121 27.9785 145.672 27.9785H140.42V18.1401H145.75Z" fill="white"/>
<path d="M164.552 42.3246V13.1621H159.809V42.3246H164.552Z" fill="white"/>
<path d="M175.33 42.8342C178.348 42.8342 180.975 41.4623 181.798 39.4632L182.151 42.3246H186.345V30.5655C186.345 25.1956 183.13 22.3734 177.917 22.3734C172.665 22.3734 169.216 25.1172 169.216 29.3112H173.292C173.292 27.273 174.86 26.0971 177.682 26.0971C180.112 26.0971 181.68 27.1554 181.68 29.7816V30.2128L175.879 30.6439C171.293 30.9967 168.706 33.2309 168.706 36.7978C168.706 40.4432 171.215 42.8342 175.33 42.8342ZM176.898 39.2281C174.742 39.2281 173.566 38.3657 173.566 36.6019C173.566 35.034 174.703 34.0541 177.682 33.7797L181.719 33.4661V34.4852C181.719 37.4642 179.838 39.2281 176.898 39.2281Z" fill="white"/>
<path d="M188.821 51.3007C189.879 51.5751 191.055 51.7319 192.388 51.7319C195.563 51.7319 197.601 50.2424 199.051 46.6363L208.537 22.9613H203.598L198.346 37.0722L193.368 22.9613H188.311L196.112 43.1477L195.563 44.598C194.74 46.8715 193.564 47.3026 191.682 47.3026H188.821V51.3007Z" fill="white"/>
</svg>
