<svg width="800" height="380" viewBox="0 0 800 380" fill="none" xmlns="http://www.w3.org/2000/svg">
<path d="M327.902 189.407V161.015H295.891V189.407H327.902ZM326.917 339.758V209.404H297.122V339.758H326.917Z" fill="white"/>
<path d="M397.375 339.758V159.534H367.58V339.758H397.375Z" fill="white"/>
<path d="M557.465 209.404H526.439L492.703 306.182L455.767 209.404H424.002L478.175 339.758C475.713 345.519 473.086 349.469 470.295 351.609C467.505 353.748 463.975 354.818 459.707 354.818C456.588 354.818 453.551 354.324 450.596 353.337C447.805 352.514 445.015 351.362 442.224 349.88L432.128 372.1C436.724 374.569 441.403 376.461 446.164 377.778C451.089 379.259 456.67 380 462.908 380C468.161 380 472.84 379.342 476.944 378.025C481.048 376.708 484.824 374.569 488.271 371.606C491.719 368.808 494.838 365.105 497.628 360.496C500.419 355.888 503.128 350.21 505.754 343.461L557.465 209.404Z" fill="white"/>
<path d="M598.201 285.197H693.743C693.907 283.716 693.989 282.317 693.989 281C694.153 279.683 694.235 278.367 694.235 277.05C694.235 267.668 692.922 258.698 690.295 250.14C687.669 241.581 683.729 234.092 678.476 227.674C673.387 221.255 666.903 216.152 659.023 212.367C651.307 208.581 642.278 206.688 631.936 206.688C622.579 206.688 614.043 208.499 606.327 212.12C598.611 215.741 591.881 220.679 586.135 226.933C580.554 233.023 576.203 240.182 573.084 248.412C569.965 256.641 568.406 265.447 568.406 274.828C568.406 285.033 570.129 294.332 573.577 302.726C577.024 310.955 581.703 318.033 587.613 323.958C593.686 329.883 600.745 334.491 608.789 337.783C616.997 341.075 625.78 342.721 635.137 342.721C647.121 342.721 657.381 340.499 665.918 336.055C674.618 331.611 682.087 325.686 688.326 318.279L670.842 302.726C665.589 307.828 660.254 311.696 654.837 314.329C649.419 316.963 643.017 318.279 635.63 318.279C625.944 318.279 617.736 315.481 611.006 309.885C604.275 304.125 600.007 295.895 598.201 285.197ZM597.955 265.447C599.268 255.242 602.88 247.013 608.789 240.758C614.863 234.339 622.497 231.13 631.69 231.13C636.615 231.13 640.965 232.035 644.741 233.846C648.681 235.656 652.046 238.125 654.837 241.252C657.627 244.215 659.844 247.836 661.485 252.115C663.127 256.23 664.194 260.673 664.686 265.447H597.955Z" fill="white"/>
<path d="M753.953 290.135C753.953 281.576 755.02 274.087 757.154 267.668C759.288 261.085 762.325 255.654 766.265 251.374C770.205 247.095 774.884 243.885 780.301 241.746C785.718 239.606 791.71 238.536 798.277 238.536H800V206.935C788.509 206.442 778.988 209.157 771.436 215.083C763.885 221.008 758.057 228.908 753.953 238.783V209.404H724.158V339.758H753.953V290.135Z" fill="white"/>
<path d="M63.5976 160.758H0L53.7551 338.384H109.782L139.309 251.848L166.565 338.384H219.563L277.104 160.758H213.506L190.036 243.498L166.565 160.758H111.296L87.0681 243.498L63.5976 160.758Z" fill="white"/>
<path d="M195.695 138.912C195.695 131.389 194.217 123.939 191.345 116.988C188.473 110.037 184.264 103.721 178.958 98.4011C173.652 93.0811 167.353 88.861 160.42 85.9818C153.487 83.1027 146.056 81.6208 138.552 81.6208C131.048 81.6208 123.617 83.1027 116.684 85.9818C109.752 88.861 103.452 93.0811 98.1459 98.4011C92.8397 103.721 88.6306 110.037 85.7589 116.988C82.8872 123.939 81.4092 131.389 81.4092 138.912L105.597 138.912C105.597 134.573 106.449 130.277 108.105 126.268C109.761 122.259 112.189 118.617 115.249 115.549C118.309 112.48 121.942 110.047 125.94 108.386C129.939 106.726 134.224 105.871 138.552 105.871C142.88 105.871 147.165 106.726 151.164 108.386C155.162 110.047 158.795 112.48 161.855 115.549C164.915 118.617 167.343 122.259 168.999 126.268C170.655 130.277 171.508 134.573 171.508 138.912H195.695Z" fill="white"/>
<path d="M234.834 138.127C234.834 125.347 232.323 112.693 227.445 100.886C222.567 89.0787 215.417 78.3505 206.404 69.3138C197.391 60.2771 186.691 53.1088 174.914 48.2181C163.138 43.3275 150.516 40.8103 137.769 40.8103C125.022 40.8103 112.401 43.3275 100.624 48.2181C88.8477 53.1088 78.1474 60.2771 69.1341 69.3138C60.1209 78.3505 52.9711 89.0787 48.0932 100.886C43.2152 112.693 40.7046 125.347 40.7046 138.127L66.0095 138.127C66.0095 128.679 67.8656 119.324 71.4719 110.595C75.0781 101.866 80.3639 93.9344 87.0274 87.2536C93.6909 80.5728 101.602 75.2732 110.308 71.6576C119.014 68.042 128.346 66.181 137.769 66.181C147.193 66.181 156.524 68.042 165.23 71.6576C173.937 75.2732 181.847 80.5728 188.511 87.2536C195.174 93.9344 200.46 101.866 204.066 110.595C207.673 119.324 209.529 128.679 209.529 138.127H234.834Z" fill="white"/>
<path d="M277.104 138.912C277.104 120.67 273.52 102.606 266.557 85.7528C259.594 68.8992 249.389 53.5856 236.523 40.6864C223.657 27.7872 208.383 17.555 191.573 10.5741C174.763 3.59307 156.747 -7.97392e-07 138.552 0C120.357 7.97392e-07 102.34 3.59307 85.5304 10.5741C68.7205 17.5551 53.4466 27.7873 40.5809 40.6864C27.7152 53.5856 17.5095 68.8992 10.5466 85.7528C3.58375 102.606 -1.59065e-06 120.67 0 138.912L24.6886 138.912C24.6886 123.921 27.6338 109.076 33.3559 95.2253C39.0781 81.3748 47.4652 68.79 58.0384 58.1893C68.6116 47.5887 81.1638 39.1797 94.9783 33.4427C108.793 27.7056 123.599 24.7528 138.552 24.7528C153.505 24.7528 168.311 27.7056 182.125 33.4427C195.94 39.1797 208.492 47.5886 219.065 58.1893C229.639 68.79 238.026 81.3748 243.748 95.2253C249.47 109.076 252.415 123.921 252.415 138.912H277.104Z" fill="white"/>
</svg>
